<?xml version="1.0" encoding="UTF-8" standalone="no"?>
<!-- Created with Inkscape (http://www.inkscape.org/) -->
<svg id="svg3997" xmlns:rdf="http://www.w3.org/1999/02/22-rdf-syntax-ns#" xmlns="http://www.w3.org/2000/svg" height="70.423" width="37.236" version="1.1" xmlns:cc="http://creativecommons.org/ns#" xmlns:xlink="http://www.w3.org/1999/xlink" xmlns:dc="http://purl.org/dc/elements/1.1/">
 <metadata id="metadata4002">
  <rdf:RDF>
   <cc:Work rdf:about="">
    <dc:format>image/svg+xml</dc:format>
    <dc:type rdf:resource="http://purl.org/dc/dcmitype/StillImage"/>
    <dc:title/>
   </cc:Work>
  </rdf:RDF>
 </metadata>
 <g id="layer1" transform="translate(-140.58388,-589.29355)">
  <g id="g11287" style="enable-background:new;" transform="matrix(0,-1,1,0,406.15117,947.34731)">
   <path id="path11255" style="enable-background:accumulate;color:#000000;" d="M16.125,0,0,9.3125,0,27.938,16.125,37.25,32.25,27.938,32.25,9.3125,16.125,0zm0,6.6562c6.6095,0,11.969,5.3593,11.969,11.969,0,6.6095-5.3593,11.969-11.969,11.969-6.6095,0-11.969-5.3593-11.969-11.969,0-6.6095,5.3593-11.969,11.969-11.969z" transform="matrix(0,1,-1,0,358.05377,-263.06735)" fill="#191f19"/>
  </g>
  <use id="use10755" style="enable-background:new;" xlink:href="#g11287" transform="translate(-18.617943,33.17299)" height="1052.3622" width="744.09448" y="0" x="0"/>
  <use id="use10797" style="enable-background:new;" xlink:href="#g11287" transform="translate(37.235893,5.171874e-7)" height="1052.3622" width="744.09448" y="0" x="0"/>
  <use id="use10799" style="enable-background:new;" xlink:href="#g11287" transform="translate(18.617946,33.17299)" height="1052.3622" width="744.09448" y="0" x="0"/>
 </g>
</svg>
