<?xml version="1.0" encoding="UTF-8" standalone="no"?>
<!-- Created with Inkscape (http://www.inkscape.org/) -->
<svg id="svg3101" xmlns:rdf="http://www.w3.org/1999/02/22-rdf-syntax-ns#" xmlns="http://www.w3.org/2000/svg" height="80" width="3000" version="1.1" xmlns:cc="http://creativecommons.org/ns#" xmlns:dc="http://purl.org/dc/elements/1.1/">
 <defs id="defs3103">
  <filter id="filter4101" height="2.8300209" width="1.1525017" color-interpolation-filters="sRGB" y="-0.91501051" x="-0.076250874">
   <feGaussianBlur id="feGaussianBlur4103" stdDeviation="24.560807"/>
  </filter>
  <filter id="filter3832-6" height="1.5040969" width="1.0123541" color-interpolation-filters="sRGB" y="-0.25204846" x="-0.0061770631">
   <feGaussianBlur id="feGaussianBlur3834-5" stdDeviation="2.5210151"/>
  </filter>
  <filter id="filter3828-6" height="2.2333851" width="2.2333851" color-interpolation-filters="sRGB" y="-0.61669254" x="-0.61669254">
   <feGaussianBlur id="feGaussianBlur3830-9" stdDeviation="2.5210151"/>
  </filter>
 </defs>
 <metadata id="metadata3106">
  <rdf:RDF>
   <cc:Work rdf:about="">
    <dc:format>image/svg+xml</dc:format>
    <dc:type rdf:resource="http://purl.org/dc/dcmitype/StillImage"/>
    <dc:title/>
   </cc:Work>
  </rdf:RDF>
 </metadata>
 <g id="layer2" stroke-linejoin="round" stroke="#FFF" stroke-linecap="butt" stroke-dasharray="none" fill="none" stroke-miterlimit="4" stroke-dashoffset="0" transform="translate(913.88185,-39.714637)">
  <path id="path4086-1" style="enable-background:accumulate;color:#000000;" d="m2078.1,78.86-1104,0-2-2m-8-8-10-10-117.62,0" filter="url(#filter3832-6)" stroke-width="4"/>
  <path id="path4019-91-9" style="enable-background:accumulate;color:#000000;" d="m495.95,418.99a4.9056,4.9056,0,1,1,-9.8111,0,4.9056,4.9056,0,1,1,9.8111,0z" transform="translate(339.98226,-360.133)" filter="url(#filter3828-6)" stroke-width="3"/>
  <path id="path4085-0-7" style="enable-background:accumulate;color:#000000;" d="m2066.1,58.86-1084,0-40,40-77.624,0" filter="url(#filter3832-6)" stroke-width="4"/>
  <path id="path4110-8" style="enable-background:accumulate;color:#000000;" d="m495.95,418.99a4.9056,4.9056,0,1,1,-9.8111,0,4.9056,4.9056,0,1,1,9.8111,0z" transform="translate(367.98226,-320.133)" filter="url(#filter3828-6)" stroke-width="3"/>
  <path id="path4088-5" style="enable-background:accumulate;color:#000000;" d="m2058.1,98.86-1104,0-2-2m-8-8-10-10-137.62,0" filter="url(#filter3832-6)" stroke-width="4"/>
  <path id="path4112-3" style="enable-background:accumulate;color:#000000;" d="m495.95,418.99a4.9056,4.9056,0,1,1,-9.8111,0,4.9056,4.9056,0,1,1,9.8111,0z" transform="translate(299.98226,-340.133)" filter="url(#filter3828-6)" stroke-width="3"/>
 </g>
 <g id="layer1" transform="translate(1063.2679,-282.63015)">
  <path id="path4091" style="enable-background:accumulate;color:#000000;" d="m1366.1,37.895a386.53,32.211,0,1,1,-773.05,0,386.53,32.211,0,1,1,773.05,0z" fill-rule="nonzero" fill-opacity="0.33687972" transform="matrix(1,0,0,0.69272362,-70.36235,290.90239)" filter="url(#filter4101)" fill="#656565"/>
  <g id="g4130" stroke-linejoin="round" style="enable-background:new;" transform="translate(-65.36235,-50.062958)" stroke="#75ff10" stroke-linecap="butt" stroke-dasharray="none" stroke-miterlimit="4" fill="none">
   <path id="path4086" style="enable-background:accumulate;color:#000000;" d="m1135.5-494.98,0,1104-2,2m-8,8-10,10,0,117.62" transform="matrix(0,1,-1,0,1499.0534,-763.63783)" stroke-width="4"/>
   <path id="path4019-91" style="enable-background:accumulate;color:#000000;" d="m495.95,418.99a4.9056,4.9056,0,1,1,-9.8111,0,4.9056,4.9056,0,1,1,9.8111,0z" transform="translate(255.95856,-67.154529)" stroke-dashoffset="0" stroke-width="3"/>
  </g>
  <g id="g4122" stroke-linejoin="round" style="enable-background:new;" transform="translate(-65.36235,-50.062958)" stroke="#39bc02" stroke-linecap="butt" stroke-dasharray="none" stroke-miterlimit="4" fill="none">
   <path id="path4085-0" style="enable-background:accumulate;color:#000000;" d="m1135.5-494.98,0,1084,40,40,0,77.624" transform="matrix(0,1,-1,0,1487.0534,-783.63783)" stroke-width="4"/>
   <path id="path4110" style="enable-background:accumulate;color:#000000;" d="m495.95,418.99a4.9056,4.9056,0,1,1,-9.8111,0,4.9056,4.9056,0,1,1,9.8111,0z" transform="translate(283.95856,-27.154529)" stroke-dashoffset="0" stroke-width="3"/>
  </g>
  <g id="g4126" stroke-linejoin="round" style="enable-background:new;" transform="translate(-65.36235,-50.062958)" stroke="#b9ffab" stroke-linecap="butt" stroke-dasharray="none" stroke-miterlimit="4" fill="none">
   <path id="path4088" style="enable-background:accumulate;color:#000000;" d="m1135.5-494.98,0,1104-2,2m-8,8-10,10,0,137.62" transform="matrix(0,1,-1,0,1479.0534,-743.63783)" stroke-width="4"/>
   <path id="path4112" style="enable-background:accumulate;color:#000000;" d="m495.95,418.99a4.9056,4.9056,0,1,1,-9.8111,0,4.9056,4.9056,0,1,1,9.8111,0z" transform="translate(215.95856,-47.154529)" stroke-dashoffset="0" stroke-width="3"/>
  </g>
 </g>
</svg>
