<?xml version="1.0" encoding="UTF-8" standalone="no"?>
<!-- Created with Inkscape (http://www.inkscape.org/) -->
<svg id="svg3997" xmlns:rdf="http://www.w3.org/1999/02/22-rdf-syntax-ns#" xmlns="http://www.w3.org/2000/svg" height="314.95" width="56.052" version="1.1" xmlns:cc="http://creativecommons.org/ns#" xmlns:dc="http://purl.org/dc/elements/1.1/">
 <defs id="defs12">
  <filter id="filter3834" height="1.0409102" width="1.2999382" color-interpolation-filters="sRGB" y="-0.02045512" x="-0.14996912">
   <feGaussianBlur id="feGaussianBlur3836" stdDeviation="2.5501748"/>
  </filter>
 </defs>
 <metadata id="metadata4002">
  <rdf:RDF>
   <cc:Work rdf:about="">
    <dc:format>image/svg+xml</dc:format>
    <dc:type rdf:resource="http://purl.org/dc/dcmitype/StillImage"/>
    <dc:title/>
   </cc:Work>
  </rdf:RDF>
 </metadata>
 <g id="g3798" stroke-linejoin="round" style="enable-background:new;" stroke-dashoffset="0" transform="translate(-70.854371,-121.06958)" filter="url(#filter3834)" stroke="#FFF" stroke-linecap="butt" stroke-miterlimit="4" stroke-dasharray="none" fill="none">
  <path id="path3800" style="color:#000000;enable-background:accumulate;" d="m114.38,129.19,0,80.646m-8,14-23,23,0,170.17" stroke-width="4"/>
  <path id="path3802" style="color:#000000;enable-background:accumulate;" d="m495.95,418.99c0,2.7093-2.1963,4.9056-4.9056,4.9056s-4.9056-2.1963-4.9056-4.9056,2.1963-4.9056,4.9056-4.9056,4.9056,2.1963,4.9056,4.9056z" transform="translate(-407.66401,4.5065005)" stroke-width="3"/>
  <path id="path3804" style="color:#000000;enable-background:accumulate;" d="m495.95,418.99c0,2.7093-2.1963,4.9056-4.9056,4.9056s-4.9056-2.1963-4.9056-4.9056,2.1963-4.9056,4.9056-4.9056,4.9056,2.1963,4.9056,4.9056z" transform="translate(-376.66401,-203.16064)" stroke-width="3"/>
 </g>
 <g id="g3919" stroke-linejoin="round" style="enable-background:new;" stroke-dashoffset="0" transform="translate(-90.854371,-121.06958)" stroke="#b9ffab" stroke-linecap="butt" stroke-miterlimit="4" stroke-dasharray="none" fill="none">
  <path id="path4104" style="color:#000000;enable-background:accumulate;" d="m134.38,129.19,0,80.646m-8,14-23,23,0,172.17" stroke-width="4"/>
  <path id="path4019-4" style="color:#000000;enable-background:accumulate;" stroke-width="3" d="m108.29,423.5c0,2.7093-2.1963,4.9056-4.9056,4.9056s-4.9056-2.1963-4.9056-4.9056,2.1963-4.9056,4.9056-4.9056,4.9056,2.1963,4.9056,4.9056z"/>
  <path id="path3088" style="color:#000000;enable-background:accumulate;" stroke-width="3" d="m139.29,215.83c0,2.7093-2.1963,4.9056-4.9056,4.9056s-4.9056-2.1963-4.9056-4.9056,2.1963-4.9056,4.9056-4.9056,4.9056,2.1963,4.9056,4.9056z"/>
 </g>
</svg>
